<svg xmlns="http://www.w3.org/2000/svg" width="406" height="87" fill="none"><path fill="#fff" d="M18.58 70V30.727h13.397v7.466h.41c.818-2.454 2.215-4.398 4.193-5.83 1.977-1.431 4.33-2.147 7.056-2.147 2.762 0 5.14.733 7.134 2.199 1.994 1.449 3.196 3.375 3.605 5.778h.41c.664-2.403 2.079-4.33 4.243-5.778 2.165-1.466 4.705-2.2 7.62-2.2 3.767 0 6.818 1.211 9.153 3.632 2.352 2.42 3.528 5.642 3.528 9.664V70H65.216V47.09c0-1.72-.435-3.067-1.304-4.039-.87-.989-2.037-1.483-3.503-1.483-1.449 0-2.6.495-3.452 1.483-.835.972-1.252 2.318-1.252 4.04V70h-13.5V47.09c0-1.72-.435-3.067-1.304-4.039-.87-.989-2.037-1.483-3.503-1.483-.972 0-1.807.222-2.506.665-.699.443-1.244 1.082-1.636 1.918-.375.818-.563 1.798-.563 2.94V70H18.58Zm75.054.614c-2.506 0-4.722-.41-6.648-1.228-1.91-.835-3.41-2.096-4.5-3.784-1.091-1.687-1.636-3.835-1.636-6.443 0-2.148.366-3.98 1.099-5.497.733-1.534 1.756-2.787 3.068-3.759 1.313-.971 2.838-1.713 4.577-2.224 1.756-.511 3.648-.844 5.676-.997 2.199-.17 3.963-.375 5.293-.614 1.346-.255 2.318-.605 2.914-1.048.597-.46.895-1.066.895-1.816v-.102c0-1.022-.392-1.806-1.176-2.352-.784-.545-1.79-.818-3.017-.818-1.347 0-2.446.298-3.298.895-.835.58-1.338 1.474-1.509 2.684H82.384c.17-2.386.929-4.585 2.275-6.596 1.364-2.029 3.35-3.648 5.958-4.858 2.608-1.228 5.863-1.841 9.767-1.841 2.812 0 5.335.332 7.568.997 2.233.648 4.133 1.56 5.702 2.736 1.568 1.159 2.761 2.523 3.579 4.09.835 1.552 1.253 3.24 1.253 5.063V70h-13.193v-5.523h-.307c-.784 1.466-1.739 2.65-2.864 3.554A10.534 10.534 0 0 1 98.312 70c-1.414.41-2.974.614-4.678.614Zm4.602-8.898c1.074 0 2.079-.222 3.017-.665a5.815 5.815 0 0 0 2.327-1.918c.596-.835.895-1.849.895-3.042v-3.273a16.29 16.29 0 0 1-1.202.435 18 18 0 0 1-1.33.383c-.46.12-.954.23-1.483.333-.511.102-1.048.196-1.61.281-1.091.17-1.986.452-2.685.844-.682.375-1.193.843-1.534 1.406a3.538 3.538 0 0 0-.486 1.84c0 1.092.384 1.927 1.15 2.507.768.58 1.748.869 2.94.869Zm46.814-30.989v10.228h-25.875V30.727h25.875Zm-20.864-9.409H138.3V57.37c0 .546.094 1.006.281 1.381.188.358.478.63.87.818.392.17.894.256 1.508.256.426 0 .921-.051 1.483-.154.58-.102 1.006-.187 1.278-.255l2.046 9.92c-.631.188-1.534.418-2.71.69-1.159.273-2.54.452-4.142.537-3.239.171-5.958-.161-8.157-.997-2.198-.852-3.852-2.19-4.96-4.014-1.108-1.824-1.645-4.108-1.611-6.852v-37.38Zm46.444 9.41v10.227h-25.875V30.727h25.875Zm-20.864-9.41h14.114V57.37c0 .546.093 1.006.281 1.381.187.358.477.63.869.818.392.17.895.256 1.509.256.426 0 .92-.051 1.483-.154a20.631 20.631 0 0 0 1.278-.255l2.046 9.92c-.631.188-1.534.418-2.711.69-1.159.273-2.539.452-4.142.537-3.238.171-5.957-.161-8.156-.997-2.199-.852-3.852-2.19-4.96-4.014-1.108-1.824-1.645-4.108-1.611-6.852v-37.38Zm41.419 49.398c-4.193 0-7.807-.801-10.841-2.403-3.017-1.62-5.343-3.938-6.98-6.955-1.619-3.034-2.429-6.665-2.429-10.892 0-4.057.818-7.602 2.455-10.636 1.636-3.035 3.946-5.395 6.929-7.083 2.983-1.687 6.503-2.531 10.559-2.531 2.966 0 5.651.46 8.054 1.38 2.404.921 4.458 2.26 6.162 4.015 1.705 1.738 3.017 3.852 3.938 6.34.92 2.49 1.381 5.293 1.381 8.413v3.272h-35.08v-7.772h22.091c-.017-1.125-.307-2.114-.869-2.966a5.54 5.54 0 0 0-2.225-2.02c-.92-.495-1.969-.742-3.145-.742-1.142 0-2.19.247-3.145.742a5.949 5.949 0 0 0-2.301 1.994c-.562.852-.861 1.85-.895 2.992v8.386c0 1.261.265 2.386.793 3.375a5.745 5.745 0 0 0 2.276 2.327c.988.562 2.181.843 3.579.843.972 0 1.858-.136 2.659-.409.818-.272 1.517-.664 2.097-1.176a4.79 4.79 0 0 0 1.278-1.892h12.887c-.444 2.727-1.492 5.097-3.145 7.108-1.654 1.995-3.844 3.546-6.571 4.653-2.711 1.092-5.881 1.637-9.512 1.637ZM212.572 70V30.727h13.704v7.466h.409c.716-2.761 1.85-4.781 3.401-6.06 1.568-1.278 3.401-1.917 5.497-1.917.614 0 1.219.051 1.815.153.614.085 1.202.213 1.765.384v12.042c-.699-.238-1.56-.417-2.583-.537-1.022-.119-1.9-.178-2.633-.178-1.381 0-2.625.315-3.733.946a6.668 6.668 0 0 0-2.583 2.607c-.63 1.108-.946 2.412-.946 3.912V70h-14.113Zm56.26-39.273v3.963H250.09v-3.963h18.742Zm-12.886-9.409h4.576v38.43c0 1.636.282 2.922.844 3.86.563.92 1.296 1.577 2.199 1.969a7.457 7.457 0 0 0 2.889.562 9.87 9.87 0 0 0 1.534-.102c.426-.085.801-.17 1.125-.256l.972 4.117c-.443.17-.989.324-1.637.46-.647.153-1.448.23-2.403.23-1.67 0-3.281-.366-4.832-1.1-1.534-.732-2.796-1.823-3.784-3.272-.989-1.449-1.483-3.247-1.483-5.395V21.318Zm33.024 49.5c-3.392 0-6.392-.86-9-2.582-2.591-1.722-4.619-4.1-6.085-7.134-1.466-3.05-2.199-6.57-2.199-10.56 0-4.022.733-7.559 2.199-10.61 1.466-3.068 3.494-5.455 6.085-7.16 2.608-1.72 5.608-2.582 9-2.582 3.392 0 6.384.861 8.975 2.583 2.591 1.721 4.619 4.108 6.085 7.159 1.483 3.051 2.224 6.588 2.224 10.61 0 3.99-.733 7.51-2.199 10.56-1.465 3.034-3.502 5.412-6.11 7.134-2.591 1.721-5.583 2.582-8.975 2.582Zm0-4.167c2.727 0 5.037-.733 6.929-2.2 1.892-1.465 3.324-3.417 4.296-5.854.988-2.438 1.483-5.123 1.483-8.054 0-2.932-.495-5.625-1.483-8.08-.972-2.455-2.404-4.423-4.296-5.906-1.892-1.483-4.202-2.225-6.929-2.225-2.71 0-5.02.742-6.929 2.225-1.892 1.483-3.332 3.451-4.321 5.906-.971 2.455-1.457 5.148-1.457 8.08 0 2.931.486 5.616 1.457 8.054.989 2.437 2.429 4.389 4.321 5.855 1.892 1.466 4.202 2.199 6.929 2.199Zm37.499 4.167c-3.392 0-6.392-.86-9-2.582-2.591-1.722-4.619-4.1-6.085-7.134-1.466-3.05-2.199-6.57-2.199-10.56 0-4.022.733-7.559 2.199-10.61 1.466-3.068 3.494-5.455 6.085-7.16 2.608-1.72 5.608-2.582 9-2.582 3.392 0 6.384.861 8.975 2.583 2.591 1.721 4.619 4.108 6.085 7.159 1.483 3.051 2.224 6.588 2.224 10.61 0 3.99-.733 7.51-2.198 10.56-1.466 3.034-3.503 5.412-6.111 7.134-2.591 1.721-5.583 2.582-8.975 2.582Zm0-4.167c2.728 0 5.037-.733 6.929-2.2 1.892-1.465 3.324-3.417 4.296-5.854.988-2.438 1.483-5.123 1.483-8.054 0-2.932-.495-5.625-1.483-8.08-.972-2.455-2.404-4.423-4.296-5.906-1.892-1.483-4.201-2.225-6.929-2.225-2.71 0-5.02.742-6.929 2.225-1.892 1.483-3.332 3.451-4.321 5.906-.971 2.455-1.457 5.148-1.457 8.08 0 2.931.486 5.616 1.457 8.054.989 2.437 2.429 4.389 4.321 5.855 1.892 1.466 4.202 2.199 6.929 2.199Zm26.786-49.015V70h-4.551V17.636h4.551Zm33.389 21.708-4.167 1.176a10.958 10.958 0 0 0-1.739-3.196c-.75-.955-1.73-1.713-2.94-2.276-1.193-.562-2.676-.843-4.449-.843-2.659 0-4.841.63-6.546 1.892-1.704 1.261-2.556 2.889-2.556 4.883 0 1.688.579 3.06 1.738 4.117 1.176 1.04 2.983 1.866 5.421 2.48l5.931 1.457c3.29.801 5.753 2.071 7.39 3.81 1.653 1.738 2.48 3.92 2.48 6.545 0 2.216-.614 4.185-1.841 5.907-1.227 1.721-2.94 3.076-5.139 4.065-2.182.971-4.713 1.457-7.594 1.457-3.835 0-6.997-.86-9.486-2.582-2.489-1.739-4.082-4.245-4.781-7.517l4.372-1.074c.563 2.335 1.662 4.1 3.298 5.292 1.654 1.194 3.827 1.79 6.52 1.79 3.017 0 5.429-.673 7.236-2.02 1.807-1.363 2.71-3.068 2.71-5.113 0-1.586-.528-2.915-1.585-3.989-1.057-1.09-2.659-1.892-4.807-2.403l-6.417-1.534c-3.41-.819-5.932-2.114-7.569-3.887-1.636-1.773-2.454-3.971-2.454-6.596 0-2.165.588-4.066 1.764-5.702 1.176-1.653 2.796-2.949 4.858-3.886 2.063-.938 4.415-1.407 7.057-1.407 3.596 0 6.469.819 8.616 2.455 2.165 1.62 3.725 3.852 4.679 6.699Z"/><circle cx="242.5" cy="66.5" r="2.5" stroke="#fff" stroke-width="2"/></svg>